<svg xmlns="http://www.w3.org/2000/svg" width="200" height="200" viewBox="0 0 200 200">
  <defs>
    <linearGradient id="ms-sheen" x1="0%" y1="0%" x2="100%" y2="100%">
      <stop offset="0%" stop-color="#3d2f50" stop-opacity="0.11"/>
      <stop offset="50%" stop-color="#4a3a62" stop-opacity="0.14"/>
      <stop offset="100%" stop-color="#2d2440" stop-opacity="0.1"/>
    </linearGradient>
  </defs>
  <g aria-hidden="true" opacity="0.4">
    <text x="8" y="34" transform="rotate(-18 8 34)" fill="url(#ms-sheen)" stroke="none" font-family="system-ui,-apple-system,'Segoe UI',sans-serif" font-size="11" font-weight="700">MyShop</text>
    <text x="112" y="24" transform="rotate(14 112 24)" fill="url(#ms-sheen)" stroke="none" font-family="system-ui,-apple-system,'Segoe UI',sans-serif" font-size="10.5" font-weight="700">MyShop</text>
    <text x="168" y="88" transform="rotate(-11 168 88)" fill="url(#ms-sheen)" stroke="none" font-family="system-ui,-apple-system,'Segoe UI',sans-serif" font-size="11" font-weight="700">MyShop</text>
    <text x="22" y="118" transform="rotate(21 22 118)" fill="url(#ms-sheen)" stroke="none" font-family="system-ui,-apple-system,'Segoe UI',sans-serif" font-size="10" font-weight="700">MyShop</text>
    <text x="138" y="142" transform="rotate(-7 138 142)" fill="url(#ms-sheen)" stroke="none" font-family="system-ui,-apple-system,'Segoe UI',sans-serif" font-size="10.5" font-weight="700">MyShop</text>
    <text x="76" y="188" transform="rotate(9 76 188)" fill="url(#ms-sheen)" stroke="none" font-family="system-ui,-apple-system,'Segoe UI',sans-serif" font-size="10" font-weight="700">MyShop</text>
  </g>
  <g fill="none" stroke="#3d2f50" stroke-opacity="0.45" stroke-width="1.25" stroke-linecap="round" stroke-linejoin="round" aria-hidden="true">
    <g transform="translate(64,34) scale(1.26)">
      <circle cx="0" cy="0" r="6.2"/>
      <circle cx="-2.2" cy="-1" r="0.75" fill="#4a3d5c" fill-opacity="0.22" stroke="none"/>
      <circle cx="2.2" cy="-1" r="0.75" fill="#4a3d5c" fill-opacity="0.22" stroke="none"/>
      <path d="M-2.8 1.8 Q0 4.8 2.8 1.8"/>
    </g>
    <g transform="translate(174,98) rotate(12) scale(1.26)">
      <circle cx="0" cy="0" r="5.4"/>
      <circle cx="-1.9" cy="-0.85" r="0.68" fill="#4a3d5c" fill-opacity="0.21" stroke="none"/>
      <circle cx="1.9" cy="-0.85" r="0.68" fill="#4a3d5c" fill-opacity="0.21" stroke="none"/>
      <path d="M-2.5 1.3 Q0 4 2.5 1.3"/>
    </g>
    <g transform="translate(20,110) rotate(-10) scale(1.26)">
      <circle cx="0" cy="0" r="5.8"/>
      <circle cx="-2" cy="-0.9" r="0.7" fill="#4a3d5c" fill-opacity="0.22" stroke="none"/>
      <circle cx="2" cy="-0.9" r="0.7" fill="#4a3d5c" fill-opacity="0.22" stroke="none"/>
      <path d="M-2.6 1.5 Q0 4.5 2.6 1.5"/>
    </g>
    <g transform="translate(120,164) rotate(7) scale(1.26)">
      <circle cx="0" cy="0" r="4.9"/>
      <circle cx="-1.5" cy="-0.6" r="0.58" fill="#4a3d5c" fill-opacity="0.2" stroke="none"/>
      <circle cx="1.5" cy="-0.6" r="0.58" fill="#4a3d5c" fill-opacity="0.2" stroke="none"/>
      <path d="M-2 1 Q0 3.5 2 1"/>
    </g>
    <g transform="translate(94,70) rotate(-7) scale(1.26)">
      <circle cx="0" cy="0" r="4.4"/>
      <circle cx="-1.35" cy="-0.5" r="0.52" fill="#4a3d5c" fill-opacity="0.19" stroke="none"/>
      <circle cx="1.35" cy="-0.5" r="0.52" fill="#4a3d5c" fill-opacity="0.19" stroke="none"/>
      <path d="M-1.85 0.95 Q0 2.9 1.85 0.95"/>
    </g>
    <g transform="translate(8,52) rotate(-20) scale(1.26)">
      <circle cx="0" cy="0" r="5.1"/>
      <circle cx="-1.8" cy="-0.75" r="0.62" fill="#4a3d5c" fill-opacity="0.2" stroke="none"/>
      <circle cx="1.8" cy="-0.75" r="0.62" fill="#4a3d5c" fill-opacity="0.2" stroke="none"/>
      <path d="M-2.3 1.1 Q0 3.6 2.3 1.1"/>
    </g>
    <g transform="translate(126,74) scale(0.63)">
      <path d="M22 2L11 13M22 2l-7 20-4-9-9-4 20-7z"/>
    </g>
    <g transform="translate(42,10) rotate(-20) scale(0.55)">
      <path d="M22 2L11 13M22 2l-7 20-4-9-9-4 20-7z"/>
    </g>
    <g transform="translate(160,20) rotate(24) scale(0.53)">
      <path d="M22 2L11 13M22 2l-7 20-4-9-9-4 20-7z"/>
    </g>
    <g transform="translate(6,62) rotate(-34) scale(0.48)">
      <path d="M22 2L11 13M22 2l-7 20-4-9-9-4 20-7z"/>
    </g>
    <g transform="translate(184,174) rotate(16) scale(0.53)">
      <path d="M22 2L11 13M22 2l-7 20-4-9-9-4 20-7z"/>
    </g>
    <g transform="translate(54,144) rotate(-24) scale(0.45)">
      <path d="M22 2L11 13M22 2l-7 20-4-9-9-4 20-7z"/>
    </g>
    <g transform="translate(152,54) rotate(40) scale(0.43)">
      <path d="M22 2L11 13M22 2l-7 20-4-9-9-4 20-7z"/>
    </g>
    <g transform="translate(92,10) scale(1.26)">
      <rect x="0" y="0" width="24" height="14" rx="4.5"/>
      <path d="M4.5 14 L8 18.5 L9.5 14 Z" fill="#3d2f50" fill-opacity="0.18" stroke="none"/>
      <circle cx="8" cy="7" r="0.65" fill="#4a3d5c" fill-opacity="0.2" stroke="none"/>
      <circle cx="12" cy="7" r="0.65" fill="#4a3d5c" fill-opacity="0.2" stroke="none"/>
      <circle cx="16" cy="7" r="0.65" fill="#4a3d5c" fill-opacity="0.2" stroke="none"/>
    </g>
    <g transform="translate(4,182) rotate(-4) scale(1.26)">
      <rect x="0" y="0" width="28" height="16" rx="5"/>
      <path d="M7 16 L11 21 L13 16 Z" fill="#3d2f50" fill-opacity="0.18" stroke="none"/>
    </g>
    <g transform="translate(156,188) rotate(5) scale(1.26)">
      <rect x="0" y="0" width="22" height="12" rx="4"/>
      <path d="M14 12 L17.5 16.5 L16 12 Z" fill="#3d2f50" fill-opacity="0.18" stroke="none"/>
    </g>
    <g transform="translate(176,128) rotate(9) scale(1.26)">
      <rect x="0" y="0" width="20" height="13" rx="4"/>
      <path d="M5 13 L8.5 17 L10 13 Z" fill="#3d2f50" fill-opacity="0.22" stroke="none"/>
      <circle cx="7" cy="6.5" r="0.6" fill="#4a3d5c" fill-opacity="0.2" stroke="none"/>
      <circle cx="10" cy="6.5" r="0.6" fill="#4a3d5c" fill-opacity="0.2" stroke="none"/>
      <circle cx="13" cy="6.5" r="0.6" fill="#4a3d5c" fill-opacity="0.2" stroke="none"/>
    </g>
    <g transform="translate(32,138) rotate(-8) scale(1.26)">
      <rect x="0" y="0" width="26" height="15" rx="5"/>
      <path d="M6 15 L10 19.5 L12 15 Z" fill="#3d2f50" fill-opacity="0.22" stroke="none"/>
    </g>
    <g transform="translate(108,118) rotate(6) scale(1.26)">
      <rect x="0" y="0" width="23" height="14" rx="4.5"/>
      <path d="M4 14 L7.5 18 L9 14 Z" fill="#3d2f50" fill-opacity="0.22" stroke="none"/>
    </g>
  </g>
  <g fill="none" stroke="#5a4a6e" stroke-opacity="0.4" stroke-width="1.05" stroke-linecap="round" stroke-linejoin="round" aria-hidden="true">
    <g transform="translate(142,46) rotate(28)">
      <path d="M0 3c-4-4-9 0-5 6l5 6 5-6c4-6-1-10-5-6z"/>
    </g>
    <g transform="translate(14,148) rotate(-16)">
      <path d="M3 4h9v6a2 2 0 0 1-2 2H5a2 2 0 0 1-2-2V4z"/>
      <path d="M12 6h2a1.5 1.5 0 0 1 0 3h-2"/>
      <path d="M5 2v2M7 1v1"/>
    </g>
    <g transform="translate(52,162) rotate(-25)">
      <circle cx="0" cy="0" r="4.5"/>
      <path d="M0-7v2M0 5v2M6.5 0h-2M-4.5 0h2M4.5-4.5L3-3M-4.5-4.5L-3-3"/>
    </g>
    <g transform="translate(88,192)">
      <path d="M0 0 Q6-3 12 0 T24 0"/>
      <path d="M4 4 Q10 1 16 4 T28 4"/>
    </g>
    <g transform="translate(118,36) rotate(22)">
      <path d="M0 8 Q4 0 8 4 Q12 0 16 8 Q8 12 0 8z"/>
    </g>
    <g transform="translate(62,58) rotate(-8)">
      <path d="M0-5 L1.5 2 L0 5 L-1.5 2 Z"/>
    </g>
    <g transform="translate(188,22) rotate(12)">
      <path d="M2 2v10M2 8c3 0 5-1.5 5-3.5S7 2 2 2"/>
    </g>
    <g transform="translate(26,78) rotate(-11)">
      <ellipse cx="0" cy="0" rx="7" ry="4"/>
      <path d="M5-1l4-2"/>
      <circle cx="-2" cy="-1" r="0.8" fill="#5a4a6e" fill-opacity="0.35" stroke="none"/>
    </g>
    <g transform="translate(168,108) rotate(19)">
      <rect x="-6" y="-4" width="12" height="10" rx="2"/>
      <path d="M-4 6v3M0 6v3M4 6v3"/>
    </g>
    <g transform="translate(136,176) rotate(-33)">
      <circle cx="0" cy="0" r="3"/>
      <path d="M-5 8 Q0 4 5 8"/>
    </g>
    <g transform="translate(76,128) rotate(7)">
      <path d="M-6 0h12M0-6v12"/>
      <circle cx="0" cy="0" r="5"/>
    </g>
    <g transform="translate(194,156) rotate(-42)">
      <path d="M0 0 L4 8 L8 0"/>
    </g>
    <g transform="translate(156,66) rotate(-14)">
      <path d="M-14 2 L-11 12 L-8 2 L-5 12 L-2 2 L1 12 L4 2"/>
      <rect x="4" y="1" width="13" height="13" rx="2.2"/>
      <path d="M7 14 v3.5 M10.5 14 v3.5 M14 14 v3.5"/>
      <path d="M6 5h9M6 8h9"/>
    </g>
    <g transform="translate(38,178) rotate(24)">
      <path d="M-2 6 Q2 1 7 5 Q9 11 5 14 Q1 12 -2 6"/>
      <path d="M7 6 L16 2.5"/>
      <circle cx="15.5" cy="2.2" r="1.6"/>
      <path d="M9 4 L11 3 M10 7 L12 6" opacity="0.85"/>
      <ellipse cx="3" cy="9" rx="2.2" ry="1.4" stroke-opacity="0.45"/>
    </g>
  </g>
</svg>
